<?xml version="1.0" encoding="UTF-8" standalone="no"?>
<svg
   version="1.0"
   width="512pt"
   height="512pt"
   viewBox="0 0 512 512"
   preserveAspectRatio="xMidYMid"
   id="svg12"
   xmlns="http://www.w3.org/2000/svg"
   xmlns:svg="http://www.w3.org/2000/svg">
  <defs
     id="defs12" />
  <g
     transform="matrix(0.1,0,0,-0.1,0,512)"
     fill="#000000"
     stroke="none"
     id="g12">
    <path
       d="m 2319,4610 c -205,-19 -427,-79 -589,-160 -408,-205 -639,-512 -727,-970 -13,-64 -17,-146 -17,-337 l -1,-251 -52,-104 C 904,2732 837,2618 785,2535 679,2369 662,2326 679,2268 c 24,-79 84,-122 205,-149 32,-7 60,-19 63,-26 3,-7 -5,-45 -17,-84 -20,-61 -21,-75 -11,-111 7,-22 30,-59 50,-81 l 38,-40 -15,-48 c -20,-61 -4,-121 47,-181 l 36,-42 v -131 c 0,-120 2,-134 26,-180 28,-55 90,-108 147,-126 70,-21 201,-22 365,-1 181,23 213,19 252,-32 39,-51 84,-300 85,-473 0,-13 9,-32 20,-43 20,-20 33,-20 830,-20 797,0 810,0 830,20 26,26 25,60 -5,178 -26,103 -75,360 -75,393 0,18 11,19 365,19 317,0 370,2 398,16 45,23 86,63 108,106 18,36 19,75 19,1188 0,1269 4,1186 -65,1253 -58,56 -104,67 -285,67 h -157 l -28,65 c -48,113 -160,271 -269,381 -251,250 -568,389 -971,423 -133,12 -218,12 -346,1 z m 476,-155 c 203,-33 384,-103 544,-209 176,-117 327,-280 407,-437 l 34,-69 h -164 -163 l -5,65 c -10,119 -81,220 -187,268 -30,13 -75,22 -128,25 -46,2 -83,8 -83,12 0,5 -22,33 -49,62 -119,131 -321,164 -478,79 l -53,-29 -62,26 c -53,23 -78,27 -158,27 -132,-1 -192,-25 -279,-115 -61,-62 -70,-67 -118,-73 -136,-16 -255,-112 -304,-247 -16,-44 -33,-68 -78,-108 -73,-64 -116,-128 -141,-210 -34,-108 -21,-224 34,-311 25,-38 100,-112 133,-129 15,-8 22,-25 26,-66 11,-111 90,-217 203,-272 60,-29 167,-41 234,-25 l 45,10 42,-48 c 23,-26 70,-63 105,-82 60,-33 67,-34 168,-34 58,0 117,3 133,8 l 27,7 v -655 c 0,-626 1,-658 19,-693 22,-43 63,-83 108,-106 28,-14 83,-16 417,-16 h 385 l 6,-37 c 10,-65 77,-407 82,-420 4,-10 -141,-13 -704,-13 h -710 l -7,78 c -10,127 -51,305 -82,363 -36,67 -97,114 -168,130 -47,10 -83,9 -251,-11 -164,-20 -204,-21 -246,-12 -101,24 -137,76 -124,178 10,80 8,155 -5,188 -6,16 -26,47 -45,68 -40,44 -43,65 -15,110 32,53 26,75 -35,135 -30,30 -55,60 -55,67 0,7 9,39 20,71 25,73 25,121 0,162 -26,44 -52,58 -145,84 -99,26 -115,35 -115,59 0,10 38,77 85,149 92,140 183,307 211,386 15,43 18,88 19,305 1,273 10,345 69,517 150,440 576,746 1119,803 110,12 370,4 482,-15 z m 31,-316 c 54,-26 100,-77 115,-130 7,-22 23,-48 36,-56 21,-14 29,-14 75,1 69,22 95,20 156,-10 66,-33 102,-89 102,-157 v -47 h -313 c -358,0 -388,-5 -449,-67 -69,-70 -68,-65 -68,-528 v -416 l -37,-17 c -24,-10 -66,-16 -114,-17 -67,0 -81,3 -125,30 -40,25 -55,43 -82,98 -42,83 -61,91 -135,53 -215,-108 -434,134 -287,319 17,22 30,50 30,66 0,35 -44,72 -74,63 -28,-8 -74,-52 -93,-88 l -15,-28 -29,28 c -44,42 -69,102 -69,166 0,70 14,110 58,172 l 36,49 15,-24 c 84,-129 227,-177 357,-120 102,44 132,110 71,155 l -28,20 -58,-32 c -36,-20 -73,-32 -96,-32 -126,0 -181,125 -109,247 44,75 156,132 236,121 42,-7 73,7 87,39 59,128 220,184 347,120 56,-28 109,-83 130,-133 8,-19 14,-58 14,-89 0,-65 22,-95 70,-95 47,0 70,30 70,93 0,62 -23,147 -52,195 -23,38 -24,36 22,56 52,23 155,20 206,-5 z m 1455,-568 29,-30 -2,-1125 -3,-1125 -23,-23 -23,-23 h -799 -799 l -23,23 -23,23 -2,1117 c -2,883 0,1122 10,1142 26,51 8,50 845,50 h 784 z"
       id="path1" />
    <path
       d="m 2245,3862 c -39,-24 -94,-87 -111,-128 -8,-19 -14,-62 -14,-98 0,-50 6,-75 28,-117 71,-137 222,-163 213,-37 0,10 -19,29 -40,44 -49,32 -75,84 -67,133 4,26 19,48 56,83 55,51 61,72 29,112 -24,31 -52,33 -94,8 z"
       id="path2" />
    <path
       d="m 2031,3241 c -92,-32 -129,-93 -86,-141 23,-25 55,-25 105,0 22,11 56,20 76,20 32,0 44,-7 84,-50 36,-39 53,-50 77,-50 29,0 54,19 65,51 17,47 -78,148 -163,173 -67,20 -91,20 -158,-3 z"
       id="path3" />
    <path
       d="m 3142,3275 -143,-155 -60,65 c -41,43 -69,65 -84,65 -24,0 -85,-60 -85,-83 0,-7 45,-61 101,-120 72,-77 107,-107 124,-107 31,0 388,369 393,407 2,17 -5,35 -24,54 -51,53 -64,45 -222,-126 z"
       id="path4" />
    <path
       d="m 3497,3278 c -27,-22 -31,-61 -7,-91 l 21,-27 h 294 c 292,0 294,0 309,22 21,30 20,50 -5,82 l -20,26 h -288 c -214,0 -291,-3 -304,-12 z"
       id="path5" />
    <path
       d="m 3495,3005 c -30,-29 -32,-55 -6,-86 l 19,-24 286,-3 286,-3 25,25 c 32,32 32,60 0,91 l -24,25 h -281 -281 z"
       id="path6" />
    <path
       d="m 3146,2546 -146,-154 -62,64 c -39,41 -69,64 -84,64 -23,0 -84,-61 -84,-84 0,-7 45,-61 101,-120 72,-75 108,-106 124,-106 33,0 395,374 395,408 0,29 -51,82 -78,82 -12,0 -75,-58 -166,-154 z"
       id="path7" />
    <path
       d="m 3490,2530 c -11,-11 -20,-27 -20,-36 0,-19 19,-56 34,-66 6,-4 140,-8 299,-8 274,0 288,1 307,20 11,11 20,27 20,36 0,19 -19,56 -34,66 -6,4 -140,8 -298,8 -275,0 -289,-1 -308,-20 z"
       id="path8" />
    <path
       d="m 3490,2270 c -11,-11 -20,-27 -20,-36 0,-19 19,-56 34,-66 6,-4 140,-8 299,-8 274,0 288,1 307,20 24,24 26,57 4,88 -15,22 -17,22 -310,22 -281,0 -295,-1 -314,-20 z"
       id="path9" />
    <path
       d="m 2795,1925 -25,-24 v -226 -226 l 25,-24 24,-25 h 224 c 212,0 226,1 251,21 l 26,20 v 234 234 l -26,20 c -25,20 -39,21 -251,21 h -224 z m 395,-250 v -145 h -140 -140 v 145 145 h 140 140 z"
       id="path10" />
    <path
       d="m 3490,1813 c -24,-30 -20,-69 7,-90 13,-10 91,-13 310,-13 h 293 l 16,25 c 18,28 13,64 -12,89 -13,14 -55,16 -304,16 h -289 z"
       id="path11" />
    <path
       d="m 3496,1565 c -26,-27 -29,-56 -8,-84 l 19,-26 219,-3 c 213,-3 219,-2 237,19 22,28 22,72 -1,92 -16,15 -48,17 -235,17 -179,0 -218,-3 -231,-15 z"
       id="path12" />
  </g>
</svg>
