<?xml version="1.0" encoding="UTF-8"?>
<svg version="1.1" xmlns="http://www.w3.org/2000/svg" width="1024" height="1024">
<path d="M0 0 C337.92 0 675.84 0 1024 0 C1024 337.92 1024 675.84 1024 1024 C686.08 1024 348.16 1024 0 1024 C0 686.08 0 348.16 0 0 Z " fill="#FEFEFE" transform="translate(0,0)"/>
<path d="M0 0 C11.36488314 10.43707708 22.62845629 21.25023854 31.8984375 33.62109375 C32.97121512 35.00401413 34.04414586 36.38681573 35.1171875 37.76953125 C69.8984375 83.18118121 69.8984375 83.18118121 69.8984375 100.62109375 C71.05236244 100.61443192 71.05236244 100.61443192 72.229599 100.6076355 C79.51127934 100.56741171 86.79290512 100.53703504 94.07466793 100.51746941 C97.8174867 100.50707209 101.56021297 100.4929878 105.30297852 100.47021484 C108.92102011 100.44834079 112.53897322 100.43649472 116.15707588 100.43133926 C117.53123935 100.42766946 118.90539847 100.4205039 120.27952385 100.40963364 C136.16267515 100.28908677 147.88906608 103.07614221 159.640625 114.23828125 C171.02817094 126.25627956 172.49139068 139.27379492 172.40637207 155.13670349 C172.41098573 157.01443386 172.41734176 158.89216062 172.42528105 160.76987988 C172.44193368 165.90967481 172.43374643 171.04917153 172.42133617 176.18896735 C172.41227132 181.73985956 172.42626259 187.29070115 172.43725586 192.84158325 C172.45503065 203.70812511 172.45120559 214.57455638 172.4396053 225.44110256 C172.43056671 234.27417568 172.42934882 243.10721784 172.43370056 251.94029427 C172.43431349 253.19812857 172.43492643 254.45596287 172.43555793 255.75191336 C172.43683685 258.30730272 172.43813371 260.86269207 172.4394483 263.41808141 C172.4505262 286.69061616 172.43904329 309.96308622 172.41807791 333.23560727 C172.39909867 354.46480236 172.40079295 375.69390146 172.41992188 396.9230957 C172.44135752 420.79188078 172.44975027 444.66061294 172.43747282 468.5294109 C172.43619865 471.07563308 172.43494116 473.62185527 172.43370056 476.16807747 C172.43308346 477.42081423 172.43246636 478.67355099 172.43183056 479.96424947 C172.42837957 488.78431479 172.43420064 497.60434601 172.44361877 506.42440605 C172.45484786 517.17663987 172.45177955 527.92875692 172.4304958 538.6809774 C172.41999742 544.16500242 172.415843 549.64883287 172.42909241 555.13285637 C172.44104715 560.15707958 172.43440282 565.18092861 172.4131822 570.20511807 C172.40872918 572.01858057 172.41095301 573.83207495 172.42068535 575.64551681 C172.49851998 591.3590073 170.10638828 603.61763966 159.08984375 615.5859375 C150.95982459 623.31030082 141.05008362 627.75116543 129.86833191 627.74134827 C128.65823456 627.74272293 127.44813721 627.7440976 126.20137024 627.74551392 C124.88219101 627.74191864 123.56301178 627.73832336 122.20385742 627.73461914 C120.79427085 627.73433693 119.38468414 627.73449567 117.97509766 627.73506165 C114.15525471 627.73534829 110.33544323 627.72947298 106.5156076 627.72248769 C102.52109293 627.71623209 98.52657752 627.7156486 94.53205872 627.71446228 C86.97090926 627.71135548 79.40977429 627.70315085 71.8486312 627.69311279 C63.23924937 627.68193146 54.62986685 627.67643611 46.02047956 627.67141736 C28.313124 627.6609677 10.60578192 627.64338085 -7.1015625 627.62109375 C-6.96348962 628.37733221 -6.82541674 629.13357067 -6.68315983 629.91272545 C-6.50243648 630.90424425 -6.32171312 631.89576305 -6.13551331 632.91732788 C-5.95619042 633.90044134 -5.77686754 634.8835548 -5.59211063 635.89645958 C-5.07078185 638.79205763 -4.58834541 641.69161869 -4.12890625 644.59765625 C-1.71945684 659.41621964 1.17981037 674.08284391 4.3984375 688.74609375 C4.58366974 689.59520325 4.76890198 690.44431274 4.95974731 691.31915283 C7.16421642 701.39160911 9.53464797 711.39269429 12.30004883 721.32766724 C14.26941321 728.53749839 15.69402633 735.63558745 12.2734375 742.62109375 C9.48152656 746.14771809 8.12782317 747.07663254 3.8984375 748.62109375 C-0.41586263 749.06374746 -4.71127629 749.02986027 -9.04504395 749.0087738 C-10.36492451 749.01415934 -11.68480508 749.01954488 -13.04468203 749.02509362 C-16.70232155 749.03954945 -20.35973577 749.03530316 -24.01738763 749.0279268 C-27.96428561 749.02319781 -31.91113466 749.03570252 -35.85801697 749.04594421 C-43.58761413 749.06314224 -51.31713004 749.06397023 -59.04674137 749.05873131 C-65.32849698 749.05469062 -71.61022857 749.05613196 -77.89198303 749.06147957 C-78.78587944 749.06222799 -79.67977584 749.06297641 -80.60076001 749.06374751 C-82.41666743 749.06527898 -84.23257484 749.06681733 -86.04848224 749.06836248 C-103.07807849 749.08209089 -120.10762881 749.0766472 -137.13722402 749.06517727 C-152.72039686 749.05524221 -168.30345102 749.06818966 -183.88660556 749.09211146 C-199.88555242 749.11648665 -215.88444396 749.12611437 -231.88340902 749.11945873 C-240.86640468 749.11596329 -249.84930902 749.1182201 -258.83229065 749.13570976 C-266.47840535 749.1504119 -274.1243644 749.15109319 -281.77047598 749.13363885 C-285.67202188 749.12511043 -289.57328951 749.12302398 -293.47482109 749.13829041 C-297.70280133 749.15462955 -301.93010662 749.14002753 -306.15808105 749.12229919 C-307.39328759 749.1319042 -308.62849412 749.14150921 -309.90113115 749.15140527 C-316.24530273 749.09646926 -320.32822629 748.98978825 -325.1015625 744.62109375 C-328.32329234 740.64671517 -328.56938185 736.89106456 -328.65625 731.9453125 C-328.71071954 730.39499745 -328.76584214 728.84470524 -328.8215332 727.29443359 C-328.85834702 726.07539337 -328.85834702 726.07539337 -328.89590454 724.83172607 C-329.61901416 702.21150021 -332.38124397 680.17081461 -337.6015625 658.12109375 C-337.77856689 657.35651855 -337.95557129 656.59194336 -338.13793945 655.80419922 C-340.25793559 647.6195098 -344.80580455 640.02861014 -352.0078125 635.39453125 C-366.99511326 627.8495545 -389.56158161 635.00943358 -405.57568359 637.14990234 C-431.62592522 640.63120454 -460.75840585 643.4030482 -483.60546875 627.6171875 C-496.08020172 617.64130558 -502.09913121 604.30114895 -504.1015625 588.62109375 C-504.55069097 580.53678129 -504.07460787 572.588397 -503.3359375 564.5390625 C-502.19812677 553.54372135 -502.19812677 553.54372135 -506.1015625 543.62109375 C-507.36560845 542.23985149 -508.63731644 540.86560529 -509.9140625 539.49609375 C-517.38653502 531.38942615 -521.4424189 521.99684425 -521.40234375 511.04296875 C-520.97497728 506.18098134 -519.56381137 501.83468944 -517.9765625 497.23828125 C-516.99587018 494.76489089 -516.99587018 494.76489089 -517.1015625 492.62109375 C-518.69192835 491.09092014 -518.69192835 491.09092014 -520.7265625 489.49609375 C-528.43644523 482.8895688 -533.9808446 475.06810706 -535.51953125 464.84375 C-535.99753921 455.2189952 -532.64784552 446.64270901 -528.9453125 437.88671875 C-527.88832143 435.04850199 -527.96190894 432.62364539 -528.1015625 429.62109375 C-531.99198993 427.87159969 -535.90978257 426.88987793 -540.04345703 425.92285156 C-555.97101288 422.18950607 -568.82337871 417.939543 -578.6015625 403.93359375 C-583.53589927 395.82120957 -584.48271915 387.83629868 -582.4140625 378.52734375 C-579.20112893 368.13885855 -573.1900934 359.70781934 -567.19018555 350.76660156 C-533.79217074 304.2229064 -533.79217074 304.2229064 -519.9140625 250.49609375 C-519.91470703 249.5525 -519.91535156 248.60890625 -519.91601562 247.63671875 C-519.94776493 242.40161141 -520.18319532 237.22265392 -520.59765625 232.00390625 C-521.23898524 223.5420714 -521.34524829 215.10343381 -521.3515625 206.62109375 C-521.35223724 205.7963858 -521.35291199 204.97167786 -521.35360718 204.12197876 C-521.29281885 156.86104051 -511.37021089 110.50351541 -489.1015625 68.62109375 C-488.72805664 67.90743652 -488.35455078 67.1937793 -487.96972656 66.45849609 C-473.10335967 38.16783703 -452.40564187 12.25524497 -427.1015625 -7.37890625 C-426.52841309 -7.8284668 -425.95526367 -8.27802734 -425.36474609 -8.74121094 C-350.71584877 -67.09337889 -253.79808192 -84.57381887 0 0 Z " fill="#000000" transform="translate(717.1015625,175.37890625)"/>
<path d="M0 0 C1.09605916 -0.00384115 2.19211833 -0.00768229 3.3213914 -0.01163983 C4.53031793 -0.01077335 5.73924445 -0.00990687 6.98480511 -0.00901413 C8.26537043 -0.01198525 9.54593575 -0.01495637 10.86530608 -0.01801753 C14.42704253 -0.02609588 17.98875884 -0.02787757 21.55050337 -0.028615 C25.38905258 -0.0304641 29.2275913 -0.03801069 33.06613445 -0.04475021 C41.46278465 -0.05833981 49.85943008 -0.06435918 58.25608945 -0.06876087 C63.49736492 -0.07152214 68.73863854 -0.07575927 73.97991276 -0.08026505 C88.48688453 -0.09245835 102.99385482 -0.10275766 117.5008316 -0.10614014 C118.8939044 -0.10646949 118.8939044 -0.10646949 120.31512008 -0.10680549 C121.24607669 -0.10702377 122.17703331 -0.10724204 123.13620073 -0.10746694 C125.02272181 -0.1079104 126.90924289 -0.10835697 128.79576397 -0.10880661 C129.73154664 -0.10902804 130.66732931 -0.10924947 131.63146903 -0.10947761 C146.79771818 -0.11342642 161.96391929 -0.1308827 177.13014988 -0.15416613 C192.69506655 -0.17786909 208.25995911 -0.1903415 223.82489413 -0.19150805 C232.56647525 -0.19242539 241.30799379 -0.19819245 250.04955769 -0.21632767 C257.4925974 -0.23171439 264.9355552 -0.23685757 272.37860779 -0.22858956 C276.17680846 -0.22467802 279.9748441 -0.2256371 283.77302456 -0.23964691 C287.8893921 -0.25469167 292.00538641 -0.24653435 296.121768 -0.23606491 C297.32400235 -0.24412132 298.52623671 -0.25217772 299.76490241 -0.26047826 C306.31679101 -0.22136546 311.32044135 0.00896901 316.38829327 4.63142776 C320.32269812 9.68430891 320.89077768 13.23026396 320.87518978 19.44915867 C320.87724241 20.20383729 320.87929505 20.9585159 320.88140988 21.73606357 C320.88710058 24.28529229 320.88562009 26.83446734 320.88420391 29.38370132 C320.88678636 31.22167593 320.88979918 33.05964998 320.89320731 34.89762324 C320.90129465 39.96436624 320.90306785 45.03109508 320.90380478 50.09784377 C320.90565231 55.55603837 320.91319809 61.01422558 320.91993999 66.47241592 C320.93353586 78.41440805 320.93954991 90.35639682 320.94395065 102.2983954 C320.9467108 109.75079879 320.95094771 117.20320089 320.95545483 124.65560341 C320.96764883 145.27723007 320.97794808 165.89885569 320.98132992 186.52048588 C320.98155155 187.85426354 320.98177334 189.1880412 320.98199527 190.52181886 C320.98221591 191.8588388 320.98243639 193.19585875 320.98265672 194.5328787 C320.98309927 197.21522383 320.98354639 199.89756896 320.98399639 202.57991409 C320.98416048 203.57751403 320.98416048 203.57751403 320.98432788 204.59526751 C320.98795935 226.16510218 321.00388267 247.73490326 321.02718676 269.30472506 C321.05177333 292.10322081 321.06549547 314.90170008 321.06669784 337.7002098 C321.06761571 350.13061243 321.07339631 362.56097108 321.09151745 374.99136162 C321.10689095 385.57448592 321.11205517 396.15755264 321.10377935 406.74068598 C321.09986316 412.14287936 321.10084959 417.5449567 321.11483669 422.94713593 C321.12751753 427.8898779 321.12642952 432.83241595 321.11424598 437.77515741 C321.11227886 439.5658779 321.11541392 441.35661255 321.12409034 443.1473131 C321.13512087 445.57718265 321.12773901 448.00632459 321.11569881 450.43617344 C321.1270916 451.4845511 321.1270916 451.4845511 321.13871455 452.55410811 C321.08243361 457.79784937 319.81124716 461.86473181 316.24376202 465.77595901 C311.84140214 469.20383819 308.99860377 470.25491243 303.49311066 470.26844215 C302.39828489 470.2735167 301.30345913 470.27859124 300.17545682 470.28381956 C298.96789454 470.28431731 297.76033226 470.28481507 296.51617718 470.28532791 C295.23702299 470.28971017 293.9578688 470.29409242 292.63995236 470.29860747 C289.08208203 470.31057695 285.52422527 470.31622228 281.96633875 470.32078862 C278.13183777 470.32674327 274.29735301 470.33835344 270.46286297 470.34907913 C261.19889219 470.37360589 251.93491604 470.38823049 242.67092279 470.4011392 C240.05469154 470.40485087 237.43846082 470.40882412 234.8222301 470.41289186 C218.57826436 470.43812761 202.33429779 470.46018226 186.09031677 470.47262001 C182.32741893 470.47554974 178.56452112 470.4785114 174.80162334 470.48152542 C173.86636529 470.48227147 172.93110724 470.48301752 171.96750804 470.48378618 C156.81550789 470.49644091 141.66362505 470.52966545 126.51167975 470.57132725 C110.95805467 470.61374321 95.40448966 470.63731463 79.85080689 470.64254057 C71.11693333 470.64595503 62.38324312 470.65771422 53.64942646 470.69064331 C46.2115332 470.71864032 38.77386087 470.72964472 31.335919 470.71844785 C27.54140618 470.71326029 23.74735606 470.71615363 19.95291042 470.74091339 C15.83704074 470.76754616 11.72218986 470.75534908 7.60626507 470.73942947 C6.40985639 470.75331156 5.21344772 470.76719365 3.98078424 470.78149641 C-2.9421604 470.71543331 -8.15340917 470.10880768 -13.25623798 465.13142776 C-19.38957652 458.40665312 -17.80695241 447.79319974 -17.75744343 439.31584549 C-17.76133768 437.47767667 -17.76697911 435.63951085 -17.77421433 433.80135214 C-17.78896884 428.7572029 -17.7787877 423.71336584 -17.76447761 418.66922665 C-17.75337191 413.22678658 -17.76530903 407.78439044 -17.77431965 402.34195328 C-17.78825626 391.68355247 -17.78069304 381.02527009 -17.76564407 370.36687492 C-17.7487904 357.9584542 -17.75199337 345.55006304 -17.75573815 333.14163442 C-17.76179502 310.33654968 -17.74601131 287.5315211 -17.72055051 264.72645283 C-17.69743009 243.90732307 -17.69204958 223.08826278 -17.70228291 202.26912308 C-17.71369791 178.87615802 -17.71562888 155.48322596 -17.70118481 132.0902611 C-17.69965895 129.59689943 -17.69813859 127.10353776 -17.6966238 124.61017609 C-17.69586599 123.38335119 -17.69510817 122.1565263 -17.6943274 120.89252489 C-17.68958111 112.23950185 -17.69143841 103.58649448 -17.6956892 94.93347168 C-17.70061105 84.39254278 -17.69465281 73.85168577 -17.6747949 63.31077336 C-17.66491002 57.93083199 -17.65983076 52.55100019 -17.66768742 47.17105293 C-17.67472866 42.24884971 -17.66797606 37.32686788 -17.65008379 32.40469392 C-17.64602923 30.6215314 -17.64705597 28.83834881 -17.65360265 27.05519371 C-17.66172765 24.63556225 -17.65147173 22.21668136 -17.63655472 19.79709816 C-17.64329237 19.1012133 -17.65003002 18.40532844 -17.65697184 17.68835616 C-17.59438105 12.4557518 -16.31589829 8.38954492 -12.75623798 4.48689651 C-8.35033816 1.05626098 -5.50997179 0.00723372 0 0 Z " fill="#FEFEFE" transform="translate(540.2562379837036,304.8685722351074)"/>
<path d="M0 0 C1.56281204 0.00323273 1.56281204 0.00323273 3.15719604 0.00653076 C68.44065044 0.22194867 133.64409981 16.03435334 185.5625 57.3125 C186.47 58.02792969 187.3775 58.74335938 188.3125 59.48046875 C202.40086877 70.78718516 215.32474315 83.15440502 226.5625 97.3125 C227.43617631 98.37348722 228.31122025 99.43334947 229.1875 100.4921875 C238.63100346 112.0291783 246.14933953 124.6674637 253.25 137.75 C253.75889771 138.68090454 253.75889771 138.68090454 254.27807617 139.63061523 C255.75185386 142.41528556 256.5625 144.11029214 256.5625 147.3125 C235.4425 147.3125 214.3225 147.3125 192.5625 147.3125 C191.9025 141.3725 191.2425 135.4325 190.5625 129.3125 C187.55965319 112.24368655 180.20098695 98.01816447 166.12890625 87.70703125 C159.4157488 83.07083195 152.46512925 79.4569916 144.5625 77.3125 C143.77488281 77.08949219 142.98726562 76.86648437 142.17578125 76.63671875 C137.50274471 75.5583257 133.25355089 75.2811653 128.48046875 75.6171875 C114.02406888 76.52500364 114.02406888 76.52500364 109.60546875 72.859375 C107.60826635 69.75855598 106.12134822 66.64940946 104.5625 63.3125 C93.69301027 48.83814584 75.57239086 39.58695954 57.91015625 36.60986328 C39.53813307 34.28279129 21.07159355 36.58243281 4.5625 45.3125 C3.13891868 46.55461943 1.72193932 47.80435643 0.3125 49.0625 C-1.85546875 50.6015625 -1.85546875 50.6015625 -4.4375 51.3125 C-8.63582952 50.08394593 -12.32772323 48.28776734 -16.234375 46.34765625 C-32.47635933 38.28228732 -55.13233176 36.8646765 -72.375 42.4375 C-74.75273811 43.33575662 -77.11028097 44.29046523 -79.4375 45.3125 C-80.51902344 45.77011719 -81.60054687 46.22773438 -82.71484375 46.69921875 C-94.60437635 52.17170223 -106.55592648 61.3756356 -112.4375 73.3125 C-114.37230509 76.19455342 -115.56030815 76.3372469 -119.0625 77.04296875 C-122.04264287 77.39415713 -125.02891657 77.63212198 -128.01953125 77.875 C-147.55323899 79.55135338 -164.86049768 91.13830088 -177.375 105.6640625 C-183.6921022 113.77579601 -187.39911784 122.24252924 -190.39453125 131.96484375 C-190.73871094 133.06957031 -191.08289063 134.17429687 -191.4375 135.3125 C-191.81455078 136.62347656 -191.81455078 136.62347656 -192.19921875 137.9609375 C-193.91546292 141.22017721 -196.49319214 142.93116328 -199.4375 145 C-216.73531328 157.76343504 -231.56738833 177.11770722 -235.15185547 198.88964844 C-237.88666528 222.08644554 -234.81166971 242.35431498 -220.125 261 C-212.83229505 269.56441073 -212.83229505 269.56441073 -203.53125 275.65625 C-200.1471296 277.2592544 -197.9656942 278.52335851 -195.4375 281.3125 C-193.82870158 286.09147562 -193.58900706 291.15954204 -193.08984375 296.1484375 C-191.88258455 307.4929078 -186.56256375 317.52340862 -179.4375 326.3125 C-178.82003906 327.09238281 -178.20257813 327.87226563 -177.56640625 328.67578125 C-167.41174922 340.83276502 -151.24782433 350.2374564 -135.4375 352.3125 C-122.4333893 353.24366916 -108.91383372 353.55546369 -96.4375 349.3125 C-95.94121094 350.02535156 -95.44492187 350.73820312 -94.93359375 351.47265625 C-83.16880624 368.05944395 -68.1584068 378.62969192 -48.01879883 382.91772461 C-42.92895774 383.69614824 -37.82628686 383.64881652 -32.6875 383.625 C-31.53822021 383.62371094 -30.38894043 383.62242187 -29.20483398 383.62109375 C-22.02457828 383.539633 -15.56457031 383.02013024 -8.66015625 380.96875 C-6.4375 380.3125 -6.4375 380.3125 -3.4375 380.3125 C-3.43690291 380.85635922 -3.43630582 381.40021844 -3.43569064 381.96055824 C-3.39976945 414.21910277 -3.34308873 446.47753483 -3.25957905 478.73598938 C-3.24956201 482.61232262 -3.23971781 486.48865628 -3.22998047 490.36499023 C-3.2280391 491.13667405 -3.22609772 491.90835786 -3.22409752 492.70342603 C-3.19310595 505.18608638 -3.17610482 517.66872836 -3.16430578 530.15141992 C-3.15187947 542.96699596 -3.12434472 555.78247585 -3.08288693 568.59799117 C-3.0577938 576.50107984 -3.04437965 584.40400898 -3.04607043 592.30713805 C-3.0461038 598.37497812 -3.0250811 604.44256216 -2.99633217 610.51034164 C-2.9878299 612.99388305 -2.98608542 615.47745846 -2.99169731 617.96100807 C-2.99835341 621.36004399 -2.98037638 624.75811943 -2.95648193 628.15705872 C-2.96424235 629.13277307 -2.97200277 630.10848742 -2.97999835 631.11376888 C-2.82978042 643.24003684 2.07519048 653.17006809 10.1484375 662.05859375 C17.70610531 669.15542815 27.52564503 673.41129704 37.81402588 673.47071838 C39.09847595 673.4805072 40.38292603 673.49029602 41.70629883 673.50038147 C43.12744103 673.50628529 44.54858363 673.51209576 45.96972656 673.51782227 C47.46783721 673.52740357 48.96594516 673.53741381 50.46405029 673.54782104 C54.52978225 673.57484879 58.59552579 673.59586989 62.6612978 673.61582303 C66.91075563 673.63769572 71.16017784 673.66507814 75.40960693 673.69187927 C83.455962 673.7417888 91.50233686 673.78673409 99.54873061 673.82990164 C108.70949482 673.87928887 117.87022329 673.93420149 127.03095293 673.98958123 C145.87476877 674.10337457 164.71861834 674.21021939 183.5625 674.3125 C183.81789205 675.81226962 183.81789205 675.81226962 184.07844353 677.34233761 C184.71963801 681.1059059 185.36230572 684.86922147 186.00538445 688.63246822 C186.28178551 690.2511388 186.55780431 691.8698747 186.83341026 693.48868084 C188.801051 705.04377924 190.86690595 716.56877782 193.21337891 728.05395508 C193.70114323 730.44179 194.18113288 732.83110056 194.66015625 735.22070312 C194.98394667 736.82560731 195.30814898 738.43042846 195.6328125 740.03515625 C195.76833527 740.70740738 195.90385803 741.37965851 196.04348755 742.07228088 C197.77072484 750.51192305 199.6930604 758.9000218 201.5625 767.3125 C108.1725 767.3125 14.7825 767.3125 -81.4375 767.3125 C-82.7575 755.7625 -84.0775 744.2125 -85.4375 732.3125 C-91.20645685 692.65337478 -91.20645685 692.65337478 -114.14453125 661.2421875 C-119.61416045 657.58556826 -125.0399017 654.88172222 -131.4375 653.3125 C-132.43620117 653.05702393 -132.43620117 653.05702393 -133.45507812 652.79638672 C-150.69507768 649.99926171 -168.8162208 653.33389886 -185.90039062 655.74902344 C-232.99105021 662.32501485 -232.99105021 662.32501485 -247.328125 652.2890625 C-252.72656685 647.76979547 -256.89013565 643.29351555 -257.68408203 636.06860352 C-257.76775208 633.62137987 -257.74902999 631.19774006 -257.6875 628.75 C-257.68234375 627.92564453 -257.6771875 627.10128906 -257.671875 626.25195312 C-257.6290705 622.90517666 -257.50901257 619.72862434 -256.94140625 616.42578125 C-256.16813909 611.64830896 -256.17164246 606.89465923 -256.125 602.0625 C-256.09599609 601.07636719 -256.06699219 600.09023438 -256.03710938 599.07421875 C-255.94728399 588.58537798 -259.31048389 579.63809772 -266.65625 572.0078125 C-274.79089849 563.53851075 -274.79089849 563.53851075 -274.92578125 558.46484375 C-273.8277985 553.6249358 -271.03380256 549.48061816 -268.4375 545.3125 C-266.44044938 541.31839875 -266.93224788 536.60417925 -267.875 532.328125 C-270.43578264 525.87281877 -276.16643126 522.01485519 -281.44140625 517.828125 C-287.19707672 512.99546296 -287.19707672 512.99546296 -287.71484375 509.37109375 C-287.95446682 503.59018716 -286.60512751 498.89035131 -284.5 493.5625 C-280.49916245 483.07306512 -278.84454437 474.75061486 -283.12109375 463.9921875 C-287.17616871 455.73764322 -293.13316689 451.76800365 -301.4375 448.3125 C-305.78911272 446.91551031 -310.18965011 445.78553504 -314.625 444.6875 C-332.58581312 440.16418688 -332.58581312 440.16418688 -336.4375 436.3125 C-337.28963421 430.62325102 -335.09503647 427.40625465 -332.0625 422.875 C-331.60915283 422.1739917 -331.15580566 421.4729834 -330.6887207 420.75073242 C-329.28747494 418.59372047 -327.86670689 416.45106874 -326.4375 414.3125 C-326.0264502 413.69697266 -325.61540039 413.08144531 -325.19189453 412.44726562 C-323.59601588 410.06230271 -321.99751787 407.67911292 -320.39648438 405.29760742 C-286.94713721 356.77366478 -286.94713721 356.77366478 -273.3046875 300.70703125 C-273.30339844 299.47533203 -273.30210937 298.24363281 -273.30078125 296.97460938 C-273.30658203 295.06905273 -273.30658203 295.06905273 -273.3125 293.125 C-273.30863281 291.87396484 -273.30476563 290.62292969 -273.30078125 289.33398438 C-273.30781395 282.57907404 -273.58066799 275.94302191 -274.20605469 269.21899414 C-278.7223379 212.50343328 -264.13075571 151.42225449 -230.4375 105.3125 C-230.01855469 104.73516113 -229.59960938 104.15782227 -229.16796875 103.56298828 C-222.84877922 94.91422451 -215.85131391 87.0328466 -208.4375 79.3125 C-207.95023438 78.79800293 -207.46296875 78.28350586 -206.9609375 77.75341797 C-199.3786344 69.76817831 -191.26125914 62.88687366 -182.4375 56.3125 C-181.88368652 55.89258789 -181.32987305 55.47267578 -180.75927734 55.04003906 C-166.1470714 43.98705068 -150.03269004 35.02750996 -133.4375 27.3125 C-132.66776855 26.95446289 -131.89803711 26.59642578 -131.10498047 26.22753906 C-109.71747118 16.40878604 -87.55858735 9.61982731 -64.4375 5.3125 C-63.61588379 5.15942383 -62.79426758 5.00634766 -61.94775391 4.84863281 C-41.42814825 1.12843541 -20.82703316 -0.07828846 0 0 Z " fill="#FEFEFE" transform="translate(498.4375,128.6875)"/>
<path d="M0 0 C10.60073895 7.26775552 15.6627545 16.28694432 19.6875 28.25 C21.37449291 32.25660816 22.33883944 33.80450319 26.1875 35.8125 C31.53454712 36.86653804 35.90976748 35.67216328 40.9375 33.8125 C50.54575707 30.37748698 60.84699416 30.52828095 70.1875 34.8125 C80.00315009 40.45686342 87.10733795 47.75319984 90.78515625 58.5703125 C91.37767816 61.87232779 91.33158124 65.15760271 91.3125 68.5 C91.31636719 69.18900391 91.32023437 69.87800781 91.32421875 70.58789062 C91.31419335 75.68580665 91.31419335 75.68580665 90.1875 76.8125 C88.55698861 76.9120317 86.92216493 76.9415873 85.28862 76.94380188 C83.6970533 76.94981415 83.6970533 76.94981415 82.07333374 76.95594788 C80.89888702 76.95541916 79.72444031 76.95489044 78.5144043 76.9543457 C76.67041298 76.95955734 76.67041298 76.95955734 74.78916931 76.96487427 C72.10725554 76.97224973 69.42539172 76.97791446 66.74347496 76.98116493 C62.49323331 76.9870731 58.24307554 77.00361585 53.99287415 77.02250671 C52.53713136 77.02884502 51.08138853 77.03517063 49.62564564 77.04148388 C48.53162746 77.0462326 48.53162746 77.0462326 47.41550791 77.05107725 C37.51880129 77.09310405 27.62213158 77.12607364 17.7253418 77.13842773 C11.05416163 77.14684099 4.38318714 77.16945935 -2.28789014 77.2077834 C-5.81508508 77.22745035 -9.34197323 77.23998052 -12.86922646 77.23494911 C-16.81837179 77.22938558 -20.76700546 77.25485524 -24.71606445 77.2824707 C-25.86824463 77.27586929 -27.0204248 77.26926788 -28.20751953 77.26246643 C-40.71332293 77.4052403 -52.69403661 81.29453968 -62.03515625 89.84765625 C-70.25844152 98.56280157 -75.03614163 108.88426484 -75.0909729 120.95628357 C-75.0996615 121.98205957 -75.0996615 121.98205957 -75.10852563 123.02855831 C-75.12541782 125.3009075 -75.12839272 127.57305227 -75.13134766 129.84545898 C-75.1406533 131.48194368 -75.15082292 133.11842366 -75.16178894 134.75489807 C-75.18903131 139.18408437 -75.20422124 143.61323897 -75.21721697 148.04248691 C-75.23287276 152.67631579 -75.25965517 157.31008018 -75.2852478 161.94386292 C-75.33199226 170.71259899 -75.36875734 179.48134726 -75.40192068 188.25014406 C-75.44017269 198.23564605 -75.48957479 208.22108318 -75.53990483 218.20653045 C-75.64316024 238.74180572 -75.73244141 259.27712206 -75.8125 279.8125 C-78.01861566 280.63148266 -80.2270834 281.44277543 -82.4375 282.25 C-83.66726563 282.70246094 -84.89703125 283.15492188 -86.1640625 283.62109375 C-98.72422007 287.72264413 -114.9169845 287.77785466 -126.8125 281.8125 C-138.00486297 275.4237957 -143.98247067 267.58119086 -148.8125 255.8125 C-150.81142156 251.23163808 -152.38366394 248.31575517 -156.8125 245.8125 C-164.55500055 244.46063482 -169.7551884 247.43398136 -176.3828125 251.0859375 C-186.56576368 256.21220677 -199.28343262 256.53383232 -210.1875 253.3125 C-222.45427943 248.543958 -231.29189085 239.98538397 -236.77734375 228.203125 C-241.10416826 218.21060953 -241.2045867 206.88497503 -237.99609375 196.4765625 C-235.43891474 190.72079984 -231.33994977 185.93505567 -227.40234375 181.0703125 C-224.84468335 177.67843311 -224.19169209 174.91858454 -224.4296875 170.76953125 C-225.33558081 166.13838282 -227.81381275 163.51612056 -231.5625 160.875 C-236.46673058 159.27169385 -240.21968438 159.55459935 -244.78515625 161.76953125 C-251.77878965 166.37170353 -257.10255088 174.39260176 -260.8125 181.8125 C-268.87733295 178.44758104 -274.22232214 169.94308926 -277.83984375 162.33203125 C-282.88853732 149.25409007 -282.39518178 134.66484217 -276.8125 121.8125 C-273.07995063 114.06377288 -267.72820103 107.99112108 -261.8125 101.8125 C-259.30266314 104.14144772 -257.50953997 106.64857016 -255.625 109.5 C-247.21933751 121.54811624 -236.33113659 129.64083784 -221.8125 132.8125 C-218.19565818 133.22069214 -214.6374366 133.29038391 -211 133.25 C-210.03731201 133.24242676 -209.07462402 133.23485352 -208.08276367 133.22705078 C-194.00708671 132.90271006 -180.57073237 127.89546099 -170.1171875 118.2421875 C-167.29207326 115.14640364 -166.88287051 112.457563 -166.4375 108.375 C-166.89389443 104.03925288 -167.97338826 102.09989254 -170.8125 98.8125 C-174.96037564 96.10736372 -177.91029666 95.30257814 -182.8125 95.8125 C-185.62759224 97.0302114 -188.20029754 98.58678947 -190.8125 100.1875 C-199.91319978 105.66160513 -207.49326853 108.28374672 -218.2421875 106.3828125 C-224.94954026 104.50289702 -230.32736836 100.59765715 -234.1640625 94.75390625 C-238.8038356 85.9249855 -239.10945581 76.23263979 -236.25 66.75 C-231.1569126 52.90541031 -221.01196821 43.0203989 -207.8125 36.8125 C-199.62258838 33.59690104 -192.34861591 33.58960374 -183.671875 34.01757812 C-177.84090217 34.18359888 -174.27042829 34.00898588 -169.8125 29.8125 C-168.15491861 27.52287348 -166.82842944 25.1163873 -165.5 22.625 C-157.73370959 9.09467866 -147.72397058 2.22890678 -133.2734375 -3.12890625 C-120.12447862 -6.6500694 -106.32902588 -4.05498485 -94.625 2.5 C-82.83768704 10.15409932 -74.11683193 20.10052097 -69.51171875 33.5078125 C-68.4166058 38.68359773 -68.27576325 43.89410637 -68.22705078 49.17578125 C-68.1226536 54.89064694 -67.10240902 58.14093947 -63.3125 62.5625 C-60.24328314 65.12018072 -56.73873791 65.15056968 -52.875 65.09375 C-49.43117908 64.62413806 -47.40250408 63.04110816 -44.8125 60.8125 C-39.403345 53.35159656 -40.19707109 44.67778051 -41.30859375 35.890625 C-43.20348408 24.04791686 -47.08863293 13.8983006 -53.7734375 3.87109375 C-54.28777344 2.85208984 -54.28777344 2.85208984 -54.8125 1.8125 C-53.8125 -1.1875 -53.8125 -1.1875 -51.23046875 -2.5390625 C-50.16441406 -2.95929688 -49.09835937 -3.37953125 -48 -3.8125 C-46.94167969 -4.23789063 -45.88335938 -4.66328125 -44.79296875 -5.1015625 C-30.17583352 -10.42733392 -13.16478241 -7.74398965 0 0 Z " fill="#FDFDFD" transform="translate(570.8125,199.1875)"/>
<path d="M0 0 C0.86847565 -0.0049649 1.73695129 -0.00992981 2.63174438 -0.01504517 C5.51394434 -0.02968723 8.39608922 -0.03647292 11.27832031 -0.04199219 C13.27891034 -0.04774288 15.27950035 -0.05350062 17.28009033 -0.05926514 C21.48002378 -0.06978157 25.67993805 -0.07561973 29.87988281 -0.07910156 C35.25791726 -0.08458128 40.63569788 -0.10859547 46.0136528 -0.13707352 C50.14866877 -0.15571309 54.28362385 -0.16090625 58.41867828 -0.16243744 C60.40098709 -0.16546256 62.38329485 -0.17348636 64.36556244 -0.18662262 C67.1423409 -0.20370717 69.91850257 -0.20179672 72.6953125 -0.1953125 C73.51216522 -0.20452728 74.32901794 -0.21374207 75.17062378 -0.22323608 C80.03048387 -0.18774673 83.53492965 0.23891601 87.60644531 3.16113281 C92.20751555 8.42999763 93.33732761 13.21031464 93.22167969 20.05224609 C93.2272287 20.90209076 93.23277771 21.75193542 93.23849487 22.62753296 C93.25022393 25.4127595 93.22608933 28.19633471 93.20019531 30.98144531 C93.19848262 32.92861863 93.1985515 34.87579426 93.20031738 36.82296753 C93.19866808 40.89310932 93.18003868 44.96269771 93.1484375 49.03271484 C93.10870847 54.24251507 93.1044009 59.45159316 93.11190033 64.66151619 C93.11497312 68.67819808 93.10283933 72.69471843 93.08576965 76.71136093 C93.07875361 78.63224143 93.07561342 80.55314023 93.07646179 82.47403336 C93.07465899 85.15929379 93.05323779 87.84369693 93.02636719 90.52880859 C93.02929779 91.31753357 93.03222839 92.10625854 93.0352478 92.91888428 C92.96137 97.71700798 92.22207008 100.99093583 89.60644531 105.16113281 C84.3701099 109.88660623 80.99408573 110.31598349 74.12109375 110.33813477 C72.80374992 110.34799156 72.80374992 110.34799156 71.45979309 110.35804749 C68.54513468 110.37780368 65.63052787 110.38944879 62.71582031 110.39941406 C61.72118019 110.40348959 60.72654007 110.40756512 59.70175934 110.41176414 C54.4364289 110.43263567 49.1711246 110.4469322 43.90576172 110.45629883 C38.46711949 110.4673602 33.02888676 110.501754 27.59038925 110.54147053 C23.40904989 110.5676191 19.22780829 110.57598915 15.04639435 110.57958031 C13.04174283 110.5844515 11.03709583 110.59608061 9.03252411 110.6146183 C6.22447821 110.63897015 3.4174942 110.63805181 0.609375 110.63110352 C-0.21682846 110.64391357 -1.04303192 110.65672363 -1.89427185 110.66992188 C-7.19898842 110.62214911 -10.16349983 109.6431161 -14.39355469 106.16113281 C-18.57133137 101.40711107 -18.54621632 96.92018524 -18.5546875 90.83764648 C-18.5596524 89.98853195 -18.56461731 89.13941742 -18.56973267 88.26457214 C-18.58434922 85.4527404 -18.59115563 82.64096508 -18.59667969 79.82910156 C-18.60243177 77.87478127 -18.6081895 75.920461 -18.61395264 73.96614075 C-18.62446133 69.8663405 -18.63030479 65.76655986 -18.63378906 61.66674805 C-18.63927199 56.41765512 -18.66329633 51.16882183 -18.69176102 45.9198103 C-18.71040067 41.88173164 -18.71559372 37.84371534 -18.71712494 33.80559731 C-18.72014924 31.87073663 -18.72817026 29.935877 -18.74131012 28.00105858 C-18.75839749 25.29144009 -18.75648376 22.5824535 -18.75 19.87280273 C-18.75921478 19.07622253 -18.76842957 18.27964233 -18.77792358 17.45892334 C-18.74177802 12.62780354 -18.03737401 9.35806668 -15.39355469 5.16113281 C-10.17985523 0.45608697 -6.84263574 0.0092722 0 0 Z " fill="#000000" transform="translate(572.3935546875,633.8388671875)"/>
<path d="M0 0 C2.23718488 1.78230969 3.9823635 3.35718585 5.875 5.4375 C6.3596875 5.94087891 6.844375 6.44425781 7.34375 6.96289062 C11.16956513 10.98640849 12.41946329 13.23739983 12.34765625 18.91015625 C11.74477116 22.53424078 9.53020424 24.46979576 7 27 C5.98099609 28.0209375 5.98099609 28.0209375 4.94140625 29.0625 C2.42881834 31.57602387 -0.09436129 34.07878713 -2.6171875 36.58203125 C-4.3698604 38.32545173 -6.12246256 40.06894335 -7.875 41.8125 C-8.74769531 42.67681641 -9.62039063 43.54113281 -10.51953125 44.43164062 C-14.93446052 48.82997241 -19.17787474 53.28561463 -23.23486328 58.0144043 C-27.36449584 62.65981254 -31.89804503 66.93331273 -36.328125 71.2890625 C-40.51806825 75.43625123 -44.51800425 79.65920245 -48.36083984 84.12939453 C-50.8928553 87.01892424 -53.58639819 89.73228786 -56.3125 92.4375 C-56.83650391 92.96537109 -57.36050781 93.49324219 -57.90039062 94.03710938 C-61.03023698 97.15894076 -62.71935459 98.79509673 -67.125 99.5 C-75.8227495 98.37770974 -82.6235157 88.5333409 -88.6184082 82.51196289 C-90.06025221 81.06475615 -91.50737116 79.62297974 -92.95507812 78.18164062 C-97.67703826 73.46286308 -102.28473829 68.68949494 -106.62133789 63.61132812 C-107.83780612 62.18956608 -109.10305836 60.80985809 -110.375 59.4375 C-112.52415508 56.21376738 -112.93108944 53.85899147 -113 50 C-110.86151743 44.43994531 -105.05681339 38.76641374 -99.91796875 35.796875 C-96.90913765 34.54677002 -95.2525872 34.43705221 -92 35 C-86.80418434 38.48151396 -82.7476633 43.27125206 -78.734375 48.01171875 C-76.44747539 50.63341222 -73.98471109 53.04447741 -71.48046875 55.45703125 C-70 57 -70 57 -68 60 C-64.71268312 58.90422771 -64.11996244 58.22195399 -62 55.625 C-58.19249268 51.12375194 -54.05994414 47.02323957 -49.84375 42.90625 C-47.01862663 40.08513745 -44.42479143 37.08274312 -41.81201172 34.06591797 C-38.89339856 30.73833719 -35.85291221 27.52849833 -32.8125 24.3125 C-29.0329986 20.30829186 -25.25755036 16.30446303 -21.5703125 12.21484375 C-21.03946045 11.62856201 -20.5086084 11.04228027 -19.96166992 10.43823242 C-18.97989369 9.35077725 -18.00307799 8.25881251 -17.0324707 7.16137695 C-11.87129909 1.46213569 -7.89404382 -2.46357743 0 0 Z " fill="#010101" transform="translate(667,484)"/>
<path d="M0 0 C3.07978595 1.95524025 5.4939163 4.36567321 8 7 C8.53238281 7.50144531 9.06476563 8.00289063 9.61328125 8.51953125 C12.25417672 11.21993986 13.03069305 13.15858075 13.75 16.875 C13.34631057 22.35068487 9.76131238 25.34262717 6 29 C4.64265947 30.35734053 3.28535121 31.71471377 1.92895508 33.07299805 C0.97175263 34.02889217 0.0119228 34.98216211 -0.95043945 35.93286133 C-3.57997472 38.53716026 -6.09938352 41.18389221 -8.5 44 C-12.14494933 48.27580595 -16.14002596 52.17202535 -20.15625 56.09375 C-22.23173716 58.16343465 -24.15035545 60.31979601 -26.05078125 62.55078125 C-31.2680664 68.57663883 -37.02095109 74.08938963 -42.6875 79.6875 C-44.9235312 81.89677908 -47.15610937 84.10946713 -49.38671875 86.32421875 C-49.89095871 86.82016037 -50.39519867 87.31610199 -50.91471863 87.82707214 C-53.14460897 90.04154064 -55.20994907 92.26491824 -57.16333008 94.72973633 C-59.15756968 97.19476811 -60.82504971 98.73812745 -63.98046875 99.44140625 C-67.35259132 99.62642536 -70.00759747 99.66082999 -72.88378906 97.74560547 C-73.48416992 97.18760254 -74.08455078 96.62959961 -74.703125 96.0546875 C-75.39172607 95.41893799 -76.08032715 94.78318848 -76.78979492 94.12817383 C-80.75392066 90.3111757 -84.68047935 86.46310974 -88.5625 82.5625 C-89.37396484 81.75490234 -90.18542969 80.94730469 -91.02148438 80.11523438 C-95.8887582 75.24010377 -100.52949905 70.23997246 -105 65 C-106.1238588 63.70734027 -107.24870753 62.41553983 -108.375 61.125 C-110.62110097 58.54258445 -111.84634747 56.8066758 -112.5 53.375 C-111.73526049 48.2130083 -108.62838615 45.57169262 -105 42 C-104.401875 41.3915625 -103.80375 40.783125 -103.1875 40.15625 C-100.43422802 37.55047473 -98.70295448 36.1434601 -94.9375 35.375 C-88.65328045 36.71206799 -85.1086298 40.78033768 -81.14453125 45.49609375 C-78.36527359 48.74109222 -75.4677283 51.86792044 -72.5625 55 C-72.01770996 55.58837646 -71.47291992 56.17675293 -70.91162109 56.78295898 C-69.60865962 58.18948493 -68.30446183 59.59486542 -67 61 C-60.4177367 55.51478059 -54.33998932 49.71388429 -48.71875 43.2421875 C-44.47915 38.36868142 -40.04696557 33.68875541 -35.60546875 29 C-31.88962239 25.06104899 -28.27365155 21.05669404 -24.72314453 16.96826172 C-21.93335635 13.78162637 -19.0657492 10.66912837 -16.1875 7.5625 C-15.61580078 6.93923828 -15.04410156 6.31597656 -14.45507812 5.67382812 C-13.63233398 4.7853418 -13.63233398 4.7853418 -12.79296875 3.87890625 C-12.3033667 3.3485376 -11.81376465 2.81816895 -11.30932617 2.27172852 C-8.14916881 -0.79768407 -4.12254784 -0.88392063 0 0 Z " fill="#010101" transform="translate(666,337)"/>
<path d="M0 0 C1.09163956 -0.00686325 2.18327911 -0.0137265 3.30799866 -0.02079773 C6.91591405 -0.03909587 10.52339582 -0.03522342 14.13134766 -0.02954102 C16.64092144 -0.03410167 19.15049398 -0.03940689 21.6600647 -0.04542542 C26.92071476 -0.05436269 32.18125238 -0.0521606 37.44189453 -0.04199219 C43.51150425 -0.0305189 49.5806717 -0.04457498 55.65022314 -0.07138866 C61.50165694 -0.09626526 67.35291936 -0.09871526 73.20439529 -0.0922718 C75.6882666 -0.09211851 78.17214639 -0.09816979 80.65598679 -0.11056328 C84.13166818 -0.12546068 87.60637994 -0.11480366 91.08203125 -0.09765625 C92.10564255 -0.10732422 93.12925385 -0.11699219 94.18388367 -0.12695312 C100.38063496 -0.06302117 104.12797778 0.71786424 109.17041016 4.40405273 C112.32167534 8.87681622 112.95567666 13.08758628 112.17041016 18.40405273 C110.6006155 22.56400858 109.05317107 25.16852373 105.17041016 27.40405273 C102.24509876 28.30283742 99.60634909 28.53313974 96.55374146 28.54449463 C95.17016449 28.55305984 95.17016449 28.55305984 93.75863647 28.5617981 C92.75386261 28.56291595 91.74908875 28.56403381 90.71386719 28.56518555 C89.65002808 28.57015045 88.58618896 28.57511536 87.4901123 28.58023071 C83.96947585 28.59484048 80.44888444 28.60165193 76.92822266 28.60717773 C74.48208617 28.61292957 72.03594969 28.6186873 69.58981323 28.62445068 C64.46026398 28.63495689 59.33073038 28.64080225 54.20117188 28.64428711 C47.62822631 28.64977507 41.05548755 28.67381137 34.48260689 28.70225906 C29.42971185 28.72088031 24.37686673 28.72609075 19.32394028 28.72762299 C16.90064232 28.73065051 14.47734526 28.73868238 12.05408096 28.75180817 C8.66447433 28.76885962 5.27537429 28.76699049 1.88574219 28.76049805 C0.88501678 28.76971283 -0.11570862 28.77892761 -1.14675903 28.78842163 C-7.7010195 28.74908896 -12.04407953 27.81314274 -17.14208984 23.40405273 C-19.94943033 20.07683438 -20.17374905 16.80292124 -20.11083984 12.53295898 C-19.51775617 8.04364504 -17.3171711 4.66958231 -13.86190796 1.73008728 C-9.28742087 -0.27033869 -4.9412608 -0.02164512 0 0 Z " fill="#000000" transform="translate(713.82958984375,417.595947265625)"/>
<path d="M0 0 C1.64008781 -0.01029488 1.64008781 -0.01029488 3.31330872 -0.02079773 C6.92059382 -0.03907039 10.52744426 -0.03522775 14.13476562 -0.02954102 C16.6453058 -0.0341022 19.15584473 -0.03940759 21.66638184 -0.04542542 C26.92525175 -0.05435716 32.18400911 -0.05216638 37.44287109 -0.04199219 C43.51308937 -0.03050747 49.582866 -0.04459661 55.6530261 -0.07138866 C61.50499938 -0.0962459 67.35680118 -0.09871908 73.20881653 -0.0922718 C75.69351435 -0.09211841 78.17822062 -0.09817729 80.66288757 -0.11056328 C84.13626993 -0.12543994 87.60867935 -0.11481978 91.08203125 -0.09765625 C92.62048454 -0.1121582 92.62048454 -0.1121582 94.1900177 -0.12695312 C100.11842642 -0.06560819 103.53499957 0.43850419 108.04101562 4.40405273 C111.0634895 8.83701441 111.93743778 13.12738594 111.04101562 18.40405273 C109.60826329 22.68525316 108.15836814 24.80218376 104.12416077 26.97523499 C99.22600966 28.99657378 94.38205356 28.83157054 89.15209961 28.80810547 C87.54105347 28.81840034 87.54105347 28.81840034 85.89746094 28.8289032 C82.36054122 28.84714898 78.82406589 28.84333745 75.28710938 28.83764648 C72.82283891 28.84220859 70.35856971 28.84751425 67.89430237 28.85353088 C62.73555321 28.86245709 57.57695891 28.86004343 52.41821289 28.85009766 C45.80824993 28.83859552 39.19882019 28.85884172 32.58892727 28.88801479 C27.5025544 28.9063591 22.41630982 28.90608804 17.32991219 28.90037727 C14.89266269 28.90022391 12.45540458 28.90628023 10.01818657 28.91866875 C6.61196243 28.93354671 3.20673021 28.92292481 -0.19946289 28.90576172 C-1.2048259 28.91542969 -2.2101889 28.92509766 -3.24601746 28.93505859 C-8.99818048 28.87437049 -12.43294964 28.31689086 -16.95898438 24.40405273 C-20.26992952 20.57032678 -21.63791274 17.57990634 -21.34179688 12.42749023 C-20.63454138 8.68913977 -19.25139345 6.48070702 -16.95898438 3.40405273 C-11.53042817 -0.28468766 -6.3212938 -0.02774498 0 0 Z " fill="#000000" transform="translate(714.958984375,564.595947265625)"/>
<path d="M0 0 C1.6108271 -0.00788544 1.6108271 -0.00788544 3.25419617 -0.01593018 C6.7965661 -0.02911135 10.33848503 -0.0203984 13.88085938 -0.01025391 C16.34655849 -0.01227517 18.81225703 -0.01518705 21.2779541 -0.01895142 C26.44268492 -0.02337223 31.60725996 -0.01695129 36.77197266 -0.00292969 C43.38973643 0.0141618 50.00713518 0.00431936 56.62488556 -0.01364708 C61.71554308 -0.0244913 66.80611416 -0.02103558 71.89677429 -0.0132637 C74.33680769 -0.01126348 76.77684896 -0.01371473 79.21687317 -0.02070236 C82.62786629 -0.02832706 86.03826952 -0.01669752 89.44921875 0 C90.4561528 -0.00607269 91.46308685 -0.01214539 92.50053406 -0.0184021 C97.82395066 0.02983676 101.64613544 0.357147 106.22460938 3.38818359 C110.09868254 7.68107548 111.59124066 10.35415784 111.50585938 16.22412109 C110.91997253 20.73219484 108.72801103 24.10855012 105.25791931 27.06214905 C100.67870875 29.06398583 96.32525125 28.81386958 91.37915039 28.79223633 C89.73928162 28.8025312 89.73928162 28.8025312 88.06628418 28.81303406 C84.45356243 28.83133073 80.84127375 28.8274603 77.22851562 28.82177734 C74.71654621 28.82633774 72.20457804 28.83164288 69.69261169 28.83766174 C64.42776549 28.84659848 59.16303166 28.84439705 53.89819336 28.83422852 C47.82061156 28.82274931 41.74347114 28.83682151 35.6659475 28.86362499 C29.80917089 28.88848359 23.95256563 28.89095491 18.09574699 28.88450813 C15.60825809 28.88435473 13.12076077 28.89041501 10.63330269 28.90279961 C7.15502212 28.91767706 3.67771306 28.9070551 0.19946289 28.88989258 C-1.34134697 28.90439453 -1.34134697 28.90439453 -2.9132843 28.91918945 C-8.8597422 28.85775117 -12.2284922 28.31729675 -16.77539062 24.38818359 C-19.65104824 21.11588355 -20.66707673 18.51464809 -21.08789062 14.13818359 C-20.72671493 9.80407522 -19.75804804 6.61009161 -16.77539062 3.38818359 C-11.27994444 -0.19015454 -6.33078407 -0.03818016 0 0 Z " fill="#030303" transform="translate(714.775390625,364.61181640625)"/>
<path d="M0 0 C1.08363831 -0.00686325 2.16727661 -0.0137265 3.28375244 -0.02079773 C6.85857315 -0.03906919 10.4329552 -0.03522793 14.0078125 -0.02954102 C16.49593244 -0.03410226 18.98405112 -0.03940766 21.47216797 -0.04542542 C27.3510083 -0.05550005 33.22969272 -0.04939526 39.10852623 -0.03817183 C43.79186001 -0.03098714 48.47491453 -0.04178556 53.15820312 -0.0625 C59.62314572 -0.09075246 66.08779662 -0.0994585 72.55279541 -0.0922718 C75.01516461 -0.09211842 77.47754232 -0.09817674 79.93988037 -0.11056328 C83.38213269 -0.12544099 86.8234034 -0.11481905 90.265625 -0.09765625 C91.28190979 -0.10732422 92.29819458 -0.11699219 93.34527588 -0.12695312 C99.12285901 -0.06663485 102.59031083 0.46627665 107.1328125 4.40405273 C110.44229031 8.23607967 111.81765885 11.22897879 111.51171875 16.38061523 C110.85590961 19.88277125 109.68226221 22.88016141 107.1328125 25.40405273 C101.1473859 28.62384256 96.05368149 28.83327936 89.33569336 28.79223633 C88.27141617 28.79749329 87.20713898 28.80275024 86.11061096 28.8081665 C82.60614176 28.82132898 79.10212977 28.81264202 75.59765625 28.80249023 C73.15580661 28.80451189 70.71395756 28.80742409 68.27210999 28.81118774 C63.16043333 28.8156059 58.04891418 28.80919565 52.93725586 28.79516602 C46.38790078 28.77806561 39.83891431 28.78792429 33.28957272 28.80588341 C28.24952927 28.81672709 23.20957314 28.81327232 18.16952705 28.80550003 C15.75461343 28.80350013 13.33969186 28.80594992 10.92478752 28.81293869 C7.54982388 28.82056352 4.17545639 28.80893411 0.80053711 28.79223633 C-0.19547516 28.79830902 -1.19148743 28.80438171 -2.21768188 28.81063843 C-7.51902029 28.76208687 -11.30230447 28.4106882 -15.8671875 25.40405273 C-19.2449674 21.75239879 -20.69973872 19.14552005 -21.1796875 14.15405273 C-20.8185118 9.81994436 -19.84984492 6.62596075 -16.8671875 3.40405273 C-11.35577013 -0.19095473 -6.35273927 -0.02813955 0 0 Z " fill="#000000" transform="translate(714.8671875,512.595947265625)"/>
<path d="M0 0 C1.44668312 -0.01496269 1.44668312 -0.01496269 2.92259216 -0.03022766 C3.97411972 -0.03089233 5.02564728 -0.03155701 6.10903931 -0.03224182 C7.22164627 -0.04056534 8.33425323 -0.04888885 9.48057556 -0.0574646 C13.16356898 -0.08158711 16.84638539 -0.09033929 20.52944946 -0.09693909 C23.08768772 -0.10590319 25.64592544 -0.11502499 28.2041626 -0.1242981 C33.56911829 -0.14079644 38.93400755 -0.14852291 44.29898071 -0.15138245 C50.49303846 -0.15501737 56.68660059 -0.18491177 62.88050687 -0.22678703 C68.84670013 -0.26570366 74.81274487 -0.2769758 80.77907181 -0.2781086 C83.31402907 -0.28231737 85.84898652 -0.29477775 88.38386154 -0.31562614 C91.92941257 -0.34246702 95.47359497 -0.33773558 99.01919556 -0.32521057 C100.06667465 -0.34004486 101.11415375 -0.35487915 102.19337463 -0.37016296 C110.13593106 -0.29022413 110.13593106 -0.29022413 113.80743408 2.68417358 C117.8597619 7.08279463 118.65486449 10.14899905 118.50991821 16.02415466 C117.89036803 20.42984482 115.55512042 23.13623002 112.2325592 25.91296387 C107.63078127 27.97410253 103.24405762 27.69982662 98.2562561 27.6782074 C97.15325668 27.68507065 96.05025726 27.6919339 94.91383362 27.69900513 C91.26864745 27.71730276 87.62389045 27.71343123 83.97866821 27.70774841 C81.44427856 27.71230876 78.90989015 27.71761389 76.37550354 27.72363281 C71.06356197 27.73256977 65.75177673 27.7303679 60.43984985 27.72019958 C54.30773796 27.70872031 48.17606352 27.72279262 42.04400927 27.74959606 C36.13492299 27.7744537 30.22597227 27.77692613 24.31683159 27.7704792 C21.80701406 27.77032579 19.29718818 27.7763866 16.7874012 27.78877068 C13.27799053 27.80364709 9.76954288 27.7930269 6.26016235 27.77586365 C5.22360504 27.78553162 4.18704773 27.79519958 3.11907959 27.80516052 C-2.82602288 27.74427448 -6.30845185 27.28790648 -10.80648804 23.27415466 C-13.70977776 18.4977748 -14.23002238 14.7502651 -13.38461304 9.35618591 C-12.32835957 5.55224605 -10.31014934 3.18452652 -6.97017479 1.16238308 C-4.49097599 0.14463186 -2.67549805 0.01487315 0 0 Z " fill="#000000" transform="translate(707.8064880371094,655.7258453369141)"/>
<path d="M0 0 C18.48 0 36.96 0 56 0 C56 18.48 56 36.96 56 56 C37.52 56 19.04 56 0 56 C0 37.52 0 19.04 0 0 Z " fill="#FDFDFD" transform="translate(582,661)"/>
<path d="M0 0 C4.40617281 2.16303029 7.1644597 4.41114924 9 9 C9.66263254 13.4175503 9.48626911 16.88852775 7.6875 21 C5.41760156 23.95576704 2.4724542 26.0768421 -0.4375 28.375 C-6.34360672 33.13620635 -10.43010886 36.58075325 -11.4296875 44.33203125 C-11.68174833 51.29335823 -11.45152624 57.40604667 -7 63 C-3.05547615 67.09431589 1.68575748 70.31420425 6.30078125 73.60546875 C8.64922505 75.53281228 9.88790684 77.24271943 10.3359375 80.26953125 C10.42415083 86.01221896 10.08070821 89.59713062 6 94 C2.27673703 96.53858839 -1.18277372 97.67700177 -5.73828125 97.46875 C-16.86737216 95.16220266 -26.66378878 85.82894065 -32.875 76.75 C-40.39120464 63.86761616 -42.28039931 49.18420559 -39.3046875 34.58984375 C-33.97534987 18.66900738 -18.25190394 -2.01864375 0 0 Z " fill="#010101" transform="translate(463,248)"/>
<path d="M0 0 C0.81970779 -0.0065712 1.63941559 -0.0131424 2.48396301 -0.01991272 C5.20382779 -0.03966526 7.92363727 -0.05131337 10.64355469 -0.0612793 C11.57199944 -0.06535482 12.50044418 -0.06943035 13.45702362 -0.07362938 C18.37222573 -0.09449963 23.28739986 -0.10879655 28.20263672 -0.11816406 C33.2780873 -0.12922346 38.35309885 -0.16361519 43.42839432 -0.20333576 C47.33179536 -0.22949263 51.23509172 -0.23785513 55.13857269 -0.24144554 C57.00925406 -0.24631483 58.87993065 -0.25793855 60.75052643 -0.27648354 C63.37179728 -0.30085276 65.99193161 -0.29991405 68.61328125 -0.29296875 C69.76842979 -0.31218384 69.76842979 -0.31218384 70.94691467 -0.33178711 C76.13613476 -0.28178023 79.08363945 0.87581088 83.06542969 4.17700195 C85.98791938 8.5607365 86.62495369 11.95477795 86.06542969 17.17700195 C84.32126595 21.85870463 82.1950713 24.38949387 78.06542969 27.17700195 C74.49149394 28.36831387 71.22874053 28.34019889 67.50805664 28.35400391 C66.74018326 28.3605751 65.97230988 28.3671463 65.1811676 28.37391663 C62.63868102 28.39363369 60.09625353 28.40531013 57.55371094 28.4152832 C56.68384237 28.41935873 55.81397381 28.42343426 54.91774559 28.42763329 C50.31145847 28.44848962 45.70520107 28.46279188 41.09887695 28.47216797 C36.35209187 28.48321714 31.60577752 28.5176009 26.85915852 28.55733967 C23.20016131 28.58354836 19.54127541 28.59186368 15.88219261 28.59544945 C14.13317888 28.60030629 12.38416983 28.61189449 10.63524818 28.63048744 C8.17971708 28.6549648 5.72539238 28.65389841 3.26977539 28.64697266 C2.55519165 28.65978271 1.84060791 28.67259277 1.10437012 28.68579102 C-4.29386903 28.63065023 -8.38771674 27.08403125 -12.93457031 24.17700195 C-15.56481845 21.28555134 -16.73667888 17.9996862 -17.15722656 14.1262207 C-16.88295183 8.47616112 -14.00815692 4.90481994 -9.93457031 1.17700195 C-6.79795207 -0.39130717 -3.44460899 0.01190217 0 0 Z " fill="#020202" transform="translate(710.9345703125,706.822998046875)"/>
<path d="M0 0 C7.30880551 5.86473592 15.10347431 12.87062827 16.89111328 22.44726562 C17.10743136 26.70364189 16.60904075 29.36607291 14.77392578 33.24804688 C11.13228246 37.17718836 7.72890112 38.93272391 2.39892578 39.24804688 C-1.958332 39.02523256 -4.26915483 37.72597634 -7.60107422 34.81054688 C-9.67173995 32.34214931 -11.64815414 29.83123312 -13.57373047 27.24804688 C-17.72529119 22.25657502 -22.03445645 19.31203052 -28.56860352 18.59448242 C-35.77143071 18.31317898 -40.66625021 20.79718333 -46.93896484 24.0546875 C-52.40329508 26.72309423 -55.63732176 27.21378275 -61.60107422 25.81054688 C-65.6191218 23.65270651 -67.93697753 22.04985202 -69.60107422 17.81054688 C-70.35584723 12.55097071 -70.36277845 8.20262702 -67.78857422 3.49804688 C-49.87411422 -14.06217239 -19.57422976 -14.54187975 0 0 Z " fill="#010101" transform="translate(454.60107421875,382.189453125)"/>
</svg>
